<?xml version="1.0" standalone="no"?><!DOCTYPE svg PUBLIC "-//W3C//DTD SVG 1.1//EN" "http://www.w3.org/Graphics/SVG/1.1/DTD/svg11.dtd"><svg t="1740031853840" class="icon" viewBox="0 0 1024 1024" version="1.1" xmlns="http://www.w3.org/2000/svg" p-id="2697" xmlns:xlink="http://www.w3.org/1999/xlink" width="24" height="24"><path d="M511.886248 1024c-282.106199 0-511.601866-229.60942-511.601867-511.943124C0.284381 229.723173 229.780049 0 511.886248 0c282.106199 0 511.601866 229.723173 511.601866 512.056876S793.992446 1024 511.886248 1024z m306.107976-809.178405C735.864919 132.123528 624.330593 84.688736 511.886248 84.63186c-231.486336 0-427.026883 195.768052-427.026883 427.425016 0 231.656965 195.597423 427.36814 427.026883 427.368141 232.453233 0 429.984448-195.085537 431.46323-425.946235 0.682515-110.510553-43.851589-216.584759-125.355254-298.657187z m-153.79338 243.430349h107.439236v107.552988h-107.496112V458.251944z m0-137.469896h107.439236v107.552989h-107.496112V320.782048zM526.844701 458.251944h107.38236v107.552988H526.844701V458.251944z m0-137.469896h107.38236v107.552989H526.844701V320.782048z m176.088869 405.413908h-382.208398v-107.552988h382.208398v107.552988zM389.488558 458.251944h107.439236v107.552988h-107.496112V458.251944z m0-137.469896h107.439236v107.552989h-107.496112V320.782048zM252.075539 458.251944h107.496112v107.552988h-107.496112V458.251944z m0-137.469896h107.496112v107.552989h-107.496112V320.782048z" fill="#303133" p-id="2698"></path></svg>